<mxfile host="app.diagrams.net" modified="2023-03-27T14:56:10.920Z" agent="Mozilla/5.0 (X11; Ubuntu; Linux x86_64; rv:109.0) Gecko/20100101 Firefox/111.0" etag="YlNtjFEpz6LDlRZw41u5" version="21.1.1" type="device">
  <diagram name="Page-1" id="H6X79qpipquMsz1ulPpb">
    <mxGraphModel dx="905" dy="347" grid="1" gridSize="10" guides="1" tooltips="1" connect="1" arrows="1" fold="1" page="1" pageScale="1" pageWidth="827" pageHeight="1169" math="0" shadow="0">
      <root>
        <mxCell id="0" />
        <mxCell id="1" parent="0" />
        <mxCell id="Roy3FrIksJB-KKHURJAv-1" value="&lt;p style=&quot;line-height: 50%;&quot;&gt;&lt;font style=&quot;font-size: 11px;&quot;&gt;&lt;font style=&quot;font-size: 10px;&quot;&gt;&lt;font style=&quot;font-size: 9px;&quot;&gt;&lt;font style=&quot;font-size: 8px;&quot;&gt;&lt;font style=&quot;font-size: 7px;&quot;&gt;&lt;font style=&quot;font-size: 6px;&quot;&gt;&lt;font style=&quot;font-size: 5px;&quot;&gt;Ajout de test de fonctionnement qui sert de documentation sur l&#39;utilisation&lt;br&gt;&lt;/font&gt;&lt;/font&gt;&lt;/font&gt;&lt;/font&gt;&lt;/font&gt;&lt;/font&gt;&lt;/font&gt;&lt;/p&gt;" style="text;html=1;strokeColor=#82b366;fillColor=#d5e8d4;align=center;verticalAlign=middle;whiteSpace=wrap;rounded=0;" parent="1" vertex="1">
          <mxGeometry x="328" y="550.5" width="122" height="19.5" as="geometry" />
        </mxCell>
        <mxCell id="Roy3FrIksJB-KKHURJAv-2" style="edgeStyle=orthogonalEdgeStyle;rounded=0;orthogonalLoop=1;jettySize=auto;html=1;entryX=0.991;entryY=0.457;entryDx=0;entryDy=0;entryPerimeter=0;" parent="1" edge="1">
          <mxGeometry relative="1" as="geometry">
            <mxPoint x="421" y="482.49664429530196" as="sourcePoint" />
            <mxPoint x="392.55999999999995" y="482.312" as="targetPoint" />
          </mxGeometry>
        </mxCell>
        <mxCell id="Roy3FrIksJB-KKHURJAv-3" style="edgeStyle=orthogonalEdgeStyle;rounded=0;orthogonalLoop=1;jettySize=auto;html=1;" parent="1" edge="1">
          <mxGeometry relative="1" as="geometry">
            <mxPoint x="463" y="482" as="targetPoint" />
            <mxPoint x="431" y="482.49664429530196" as="sourcePoint" />
          </mxGeometry>
        </mxCell>
        <mxCell id="Roy3FrIksJB-KKHURJAv-4" value="" style="shape=umlActor;verticalLabelPosition=bottom;verticalAlign=top;html=1;outlineConnect=0;" parent="1" vertex="1">
          <mxGeometry x="422" y="470" width="10" height="25" as="geometry" />
        </mxCell>
        <mxCell id="Roy3FrIksJB-KKHURJAv-5" value="Amélioration continue avec STARS" style="text;html=1;align=center;verticalAlign=middle;whiteSpace=wrap;rounded=0;fontSize=8;fontStyle=1;fillColor=#a0522d;strokeColor=#6D1F00;fontColor=#ffffff;" parent="1" vertex="1">
          <mxGeometry x="300" y="470" width="88" height="21" as="geometry" />
        </mxCell>
        <mxCell id="Roy3FrIksJB-KKHURJAv-6" value="Guide gestion communauté avec projet libre" style="text;html=1;strokeColor=#b85450;fillColor=#f8cecc;align=center;verticalAlign=middle;whiteSpace=wrap;rounded=0;fontSize=8;fontStyle=1" parent="1" vertex="1">
          <mxGeometry x="467" y="470" width="114" height="21" as="geometry" />
        </mxCell>
        <mxCell id="Roy3FrIksJB-KKHURJAv-7" value="&lt;font style=&quot;font-size: 8px;&quot;&gt;Détection des anomalies&lt;/font&gt;" style="text;html=1;strokeColor=#6c8ebf;fillColor=#dae8fc;align=center;verticalAlign=middle;whiteSpace=wrap;rounded=0;fontStyle=1" parent="1" vertex="1">
          <mxGeometry x="462" y="539.75" width="102" height="12.63" as="geometry" />
        </mxCell>
        <mxCell id="Roy3FrIksJB-KKHURJAv-8" style="rounded=0;orthogonalLoop=1;jettySize=auto;html=1;entryX=0;entryY=0;entryDx=0;entryDy=0;" parent="1" source="Roy3FrIksJB-KKHURJAv-4" target="Roy3FrIksJB-KKHURJAv-7" edge="1">
          <mxGeometry relative="1" as="geometry" />
        </mxCell>
        <mxCell id="Roy3FrIksJB-KKHURJAv-9" value="&lt;font style=&quot;font-size: 8px;&quot;&gt;&lt;b&gt;No-code/Low-code&lt;/b&gt;&lt;/font&gt;" style="text;html=1;strokeColor=#0e8088;fillColor=#b0e3e6;align=center;verticalAlign=middle;whiteSpace=wrap;rounded=0;" parent="1" vertex="1">
          <mxGeometry x="311" y="499" width="79" height="10" as="geometry" />
        </mxCell>
        <mxCell id="Roy3FrIksJB-KKHURJAv-10" style="rounded=0;orthogonalLoop=1;jettySize=auto;html=1;entryX=1;entryY=0;entryDx=0;entryDy=0;" parent="1" source="Roy3FrIksJB-KKHURJAv-4" target="Roy3FrIksJB-KKHURJAv-9" edge="1">
          <mxGeometry relative="1" as="geometry" />
        </mxCell>
        <mxCell id="Roy3FrIksJB-KKHURJAv-11" value="&lt;font style=&quot;font-size: 8px;&quot;&gt;&lt;b&gt;Développement Agile avec suivi du développement&lt;/b&gt;&lt;/font&gt;" style="text;html=1;strokeColor=#d6b656;fillColor=#fff2cc;align=center;verticalAlign=middle;whiteSpace=wrap;rounded=0;" parent="1" vertex="1">
          <mxGeometry x="467" y="499.5" width="109" height="30.5" as="geometry" />
        </mxCell>
        <mxCell id="Roy3FrIksJB-KKHURJAv-12" style="rounded=0;orthogonalLoop=1;jettySize=auto;html=1;entryX=0;entryY=0;entryDx=0;entryDy=0;" parent="1" source="Roy3FrIksJB-KKHURJAv-4" target="Roy3FrIksJB-KKHURJAv-11" edge="1">
          <mxGeometry relative="1" as="geometry" />
        </mxCell>
        <mxCell id="Roy3FrIksJB-KKHURJAv-13" value="&lt;p style=&quot;line-height: 50%;&quot;&gt;&lt;font style=&quot;font-size: 5px;&quot;&gt;Paramétrage par données ou insertion d&#39;algorithme en code&lt;br&gt;&lt;/font&gt;&lt;/p&gt;" style="text;html=1;strokeColor=#0e8088;fillColor=#b0e3e6;align=center;verticalAlign=middle;whiteSpace=wrap;rounded=0;" parent="1" vertex="1">
          <mxGeometry x="313" y="509.38" width="75" height="16.75" as="geometry" />
        </mxCell>
        <mxCell id="Roy3FrIksJB-KKHURJAv-14" value="&lt;div&gt;&lt;font style=&quot;font-size: 8px;&quot;&gt;Formation&lt;/font&gt;&lt;/div&gt;" style="text;html=1;strokeColor=#82b366;fillColor=#d5e8d4;align=center;verticalAlign=middle;whiteSpace=wrap;rounded=0;fontStyle=1" parent="1" vertex="1">
          <mxGeometry x="338" y="539.75" width="104" height="10" as="geometry" />
        </mxCell>
        <mxCell id="Roy3FrIksJB-KKHURJAv-15" style="rounded=0;orthogonalLoop=1;jettySize=auto;html=1;entryX=0.5;entryY=0;entryDx=0;entryDy=0;" parent="1" source="Roy3FrIksJB-KKHURJAv-4" target="Roy3FrIksJB-KKHURJAv-14" edge="1">
          <mxGeometry relative="1" as="geometry">
            <mxPoint x="426" y="495" as="sourcePoint" />
          </mxGeometry>
        </mxCell>
        <mxCell id="Roy3FrIksJB-KKHURJAv-16" value="&lt;p style=&quot;line-height: 30%;&quot;&gt;&lt;font style=&quot;font-size: 5px;&quot;&gt;Révision par les pairs&lt;br&gt;&lt;/font&gt;&lt;/p&gt;" style="text;html=1;strokeColor=#6c8ebf;fillColor=#dae8fc;align=center;verticalAlign=middle;whiteSpace=wrap;rounded=0;opacity=70;" parent="1" vertex="1">
          <mxGeometry x="475" y="552.38" width="70" height="17.62" as="geometry" />
        </mxCell>
        <mxCell id="Roy3FrIksJB-KKHURJAv-17" value="" style="verticalLabelPosition=bottom;verticalAlign=top;html=1;shape=mxgraph.basic.star" parent="1" vertex="1">
          <mxGeometry x="373" y="480.25" width="9" height="8.5" as="geometry" />
        </mxCell>
      </root>
    </mxGraphModel>
  </diagram>
</mxfile>
